<svg version="1.1" id="Layer_1" xmlns="http://www.w3.org/2000/svg" xmlns:xlink="http://www.w3.org/1999/xlink" x="0px" y="0px"
	 width="100%" viewBox="0 0 1024 1024" enable-background="new 0 0 1024 1024" xml:space="preserve">
<path fill="#000000" opacity="1.000000" stroke="none" 
	d="
M191.568390,261.471619 
	C196.386353,269.097015 200.940872,276.462402 205.693649,283.697571 
	C207.233582,286.041809 207.189011,287.715759 205.268890,289.830322 
	C202.252335,293.152374 199.519562,296.736908 196.743896,300.270966 
	C195.308090,302.099091 193.727356,302.567871 191.511520,301.713531 
	C166.978058,292.254913 142.424194,282.849213 117.885002,273.405457 
	C117.300354,273.180450 116.821388,272.680847 115.563599,271.796295 
	C119.416466,267.105103 123.033501,262.453735 126.945732,258.065521 
	C128.406769,256.426727 130.376480,257.769775 132.052841,258.419098 
	C146.795334,264.129211 161.531738,269.855103 176.282349,275.544159 
	C177.482925,276.007141 178.598633,276.917297 180.806839,276.351501 
	C175.249893,267.491028 169.835770,258.830536 164.392456,250.188400 
	C160.577103,244.130936 156.788589,238.054672 152.852280,232.076218 
	C151.238754,229.625641 151.210434,227.642838 153.210739,225.370773 
	C164.539734,212.502701 158.416153,213.641174 174.278748,219.579163 
	C186.903900,224.305237 199.425308,229.308258 212.000992,234.166992 
	C212.901932,234.515091 213.870453,234.688324 215.812195,235.215744 
	C209.724548,225.651413 204.150269,216.871567 198.552490,208.106705 
	C194.878220,202.353638 191.327728,196.511856 187.416107,190.923813 
	C185.181946,187.732162 185.397293,185.246643 188.048721,182.587509 
	C190.946930,179.680847 192.734634,175.738480 196.196945,173.479614 
	C198.263947,174.010666 198.918625,175.657318 199.796341,177.018539 
	C213.149887,197.728561 226.417847,218.494186 239.872604,239.138092 
	C241.994263,242.393387 242.204208,244.566208 239.534317,247.812180 
	C229.779053,259.672394 229.926712,259.805725 215.525879,254.299240 
	C203.576477,249.730118 191.636444,245.136490 178.739929,240.188309 
	C182.508530,248.162552 187.449158,254.370789 191.568390,261.471619 
z"/>
<path fill="#000000" opacity="1.000000" stroke="none" 
	d="
M819.639893,736.631104 
	C821.786926,731.590942 824.400269,731.440674 828.656555,734.125977 
	C839.487366,740.959045 850.633911,747.291565 861.832397,753.930176 
	C862.530762,752.539185 861.569336,751.714783 861.099609,750.837158 
	C855.520691,740.413391 849.905151,730.009094 844.327698,719.584473 
	C841.291809,713.910339 844.787537,707.867798 851.263062,707.817871 
	C863.534180,707.723267 875.806519,707.790527 888.358643,706.837463 
	C878.150146,700.699280 867.948242,694.550110 857.730835,688.426819 
	C851.036011,684.414490 851.025940,684.431396 855.117859,677.632141 
	C860.699768,668.357056 860.647156,668.443848 869.924622,674.058411 
	C888.160767,685.094849 906.408264,696.115173 924.777710,706.926880 
	C928.760254,709.270874 929.351074,711.126282 927.221375,715.516785 
	C923.834900,722.498169 919.264587,724.765198 911.544556,724.424194 
	C896.268982,723.749512 880.942566,724.225037 864.586060,724.225037 
	C868.013916,730.762939 871.017944,736.607361 874.126770,742.395569 
	C879.012085,751.491638 883.825134,760.631775 888.963196,769.584351 
	C891.058655,773.235474 890.895935,776.061646 888.578369,779.590149 
	C883.137329,787.874329 883.239990,788.124634 874.835571,783.169128 
	C856.473938,772.342957 838.192322,761.380859 819.893311,750.448669 
	C813.533081,746.648865 813.552979,746.613831 817.371643,740.360657 
	C818.066101,739.223450 818.768921,738.091370 819.639893,736.631104 
z"/>
<path fill="#000000" opacity="1.000000" stroke="none" 
	d="
M295.154419,134.765427 
	C291.929871,128.138229 288.863770,121.850349 285.848541,115.538147 
	C284.962494,113.683235 284.114807,111.766350 286.827026,110.540802 
	C301.969238,103.698692 316.169434,94.510246 332.507355,90.646881 
	C350.642334,86.358589 362.860077,100.190643 357.208679,117.939415 
	C357.015686,118.545502 356.945312,119.190628 356.847565,119.671227 
	C357.999573,121.125572 359.458954,120.643417 360.711121,120.842010 
	C376.098145,123.282539 383.495483,140.708160 374.607147,153.506973 
	C371.370514,158.167618 366.970123,161.521332 362.062164,163.977936 
	C348.811615,170.610291 335.358704,176.837051 322.051361,183.358078 
	C318.797638,184.952499 318.014038,182.909897 316.962982,180.687286 
	C309.772034,165.480896 302.546631,150.290787 295.154419,134.765427 
M346.962463,135.258347 
	C342.459961,136.028152 338.586761,138.378189 334.537903,140.263184 
	C321.336792,146.409149 321.348175,146.433167 328.282227,159.375198 
	C328.438873,159.667572 328.596863,159.961334 328.724335,160.266922 
	C329.555511,162.259949 330.934784,162.479874 332.745178,161.596817 
	C339.457153,158.322952 346.298920,155.291183 352.858124,151.736984 
	C356.808289,149.596542 359.760712,146.334564 358.290283,141.173309 
	C356.948120,136.462265 354.152710,134.904953 346.962463,135.258347 
M324.454681,128.845993 
	C328.294189,126.864220 332.297241,125.140419 335.932159,122.835938 
	C340.564850,119.898880 341.873077,115.850647 340.124054,111.788383 
	C338.409210,107.805504 334.356659,105.954987 329.123566,107.538513 
	C321.966919,109.704102 315.543793,113.561829 308.996368,116.722687 
	C309.043915,120.076675 310.824646,122.217163 311.876434,124.611053 
	C316.433746,134.983551 315.447083,132.786758 324.454681,128.845993 
z"/>
<path fill="#000000" opacity="1.000000" stroke="none" 
	d="
M666.460815,915.629639 
	C669.701721,923.342285 672.663086,930.763977 675.919739,938.053833 
	C677.279724,941.097900 676.421509,942.422058 673.575134,943.750427 
	C660.234497,949.976746 660.247437,950.055664 654.458618,936.630981 
	C646.485779,918.141541 638.536987,899.641724 630.598450,881.137573 
	C628.003906,875.089966 628.265564,875.447266 634.105225,872.335449 
	C640.184692,869.096008 645.182190,869.587646 651.187073,873.000183 
	C664.489990,880.559875 678.279480,887.263977 691.884155,894.290649 
	C693.171753,894.955750 694.556213,895.433533 697.046875,896.483582 
	C692.948669,886.849487 689.269287,878.214294 685.602356,869.573792 
	C683.847107,865.437744 682.233459,861.236572 680.331543,857.169739 
	C679.069824,854.471680 679.645020,853.043823 682.346924,851.697998 
	C695.823181,844.985718 695.897766,844.876526 701.855652,858.567993 
	C710.087769,877.485779 718.087769,896.504578 726.319092,915.422607 
	C727.808044,918.844543 727.322327,920.450256 723.789246,922.366577 
	C716.827454,926.142456 710.921204,925.935608 703.914978,921.837952 
	C691.144470,914.368896 677.748535,907.968811 664.603455,901.142029 
	C663.316345,900.473572 661.959595,899.939148 659.302856,898.742371 
	C661.968811,905.044861 664.134644,910.165161 666.460815,915.629639 
z"/>
<path fill="#000000" opacity="1.000000" stroke="none" 
	d="
M474.613708,116.984634 
	C474.607635,96.828148 474.614471,77.168289 474.581787,57.508495 
	C474.577393,54.856426 474.593811,52.229313 478.188934,52.240196 
	C493.483551,52.286484 508.931610,50.506550 524.009888,53.839317 
	C558.348572,61.429222 563.535522,99.061722 546.621765,118.783043 
	C538.425537,128.339783 527.479675,132.604736 515.281860,133.158768 
	C503.144287,133.710052 490.961761,133.215729 478.800720,133.344772 
	C475.547943,133.379272 474.325623,132.256699 474.532990,128.973618 
	C474.774109,125.156357 474.605194,121.313202 474.613708,116.984634 
M532.196838,106.607559 
	C542.170593,89.977486 533.435791,71.522507 514.378906,68.890038 
	C508.912689,68.134956 503.429932,68.544083 497.954681,68.413422 
	C495.299561,68.350067 493.960632,69.428467 493.968781,72.219612 
	C494.007874,85.677711 494.014740,99.136147 493.956116,112.594124 
	C493.942108,115.807922 495.388824,117.029884 498.520844,116.940117 
	C503.335571,116.802109 508.162567,117.025383 512.973267,116.826981 
	C520.671875,116.509468 527.158691,113.630005 532.196838,106.607559 
z"/>
<path fill="#000000" opacity="1.000000" stroke="none" 
	d="
M880.530518,237.401703 
	C895.746460,250.704041 903.163940,266.666931 897.672607,286.482483 
	C893.349854,302.081421 882.112061,311.523651 866.615662,315.170715 
	C850.535278,318.955231 836.930786,313.218506 826.252930,301.291229 
	C814.821838,288.522614 809.719971,273.670898 815.291748,256.555664 
	C824.096558,229.509476 856.507874,219.878891 880.530518,237.401703 
M832.309326,265.936218 
	C827.598328,284.110382 843.677002,301.004822 861.392334,296.494751 
	C874.905579,293.054413 884.165161,279.239838 881.015991,267.217926 
	C878.027405,255.809097 869.339294,248.064438 858.730774,247.352783 
	C847.679565,246.611450 837.089722,253.811737 832.309326,265.936218 
z"/>
<path fill="#000000" opacity="1.000000" stroke="none" 
	d="
M793.408936,851.630615 
	C796.680542,856.279358 799.680542,860.682617 802.833740,864.973267 
	C804.718628,867.538208 804.383911,869.342896 801.745422,871.164490 
	C792.708130,877.403931 783.823181,883.864990 774.756226,890.060120 
	C769.052429,893.957336 762.714111,896.575134 755.787964,897.197144 
	C736.018982,898.972717 720.324890,878.322205 727.137878,859.638000 
	C727.589722,858.398865 728.028503,857.155090 728.682556,855.329468 
	C719.828186,850.818298 709.992310,848.869324 699.919067,843.973999 
	C705.946228,839.773560 710.997131,836.134460 716.193176,832.716003 
	C717.494141,831.860168 719.099121,832.795654 720.504028,833.312317 
	C726.124451,835.379150 731.808838,837.290344 737.342590,839.567505 
	C740.831421,841.003235 743.646179,840.627136 746.528809,838.208069 
	C749.177673,835.985291 752.129761,834.123840 755.396057,831.782166 
	C751.882263,826.843750 748.645081,822.052979 745.143433,817.463989 
	C743.070618,814.747620 743.058472,812.906189 746.198486,811.072144 
	C748.919006,809.483154 751.560242,807.663208 753.932312,805.596191 
	C757.258606,802.697632 759.356689,803.223389 761.857788,806.845276 
	C772.165649,821.772766 782.731079,836.522522 793.408936,851.630615 
M744.934204,862.605957 
	C743.114380,868.550171 745.740112,873.060486 749.911865,876.784302 
	C754.023804,880.454529 758.713074,880.088867 763.433228,877.801086 
	C768.724243,875.236511 773.118835,871.336426 777.966736,868.112427 
	C779.323975,867.209778 779.517090,865.990906 778.573486,864.679688 
	C773.939453,858.239990 769.845581,851.390686 764.241882,844.996155 
	C757.518677,850.671936 748.948425,853.446655 744.934204,862.605957 
z"/>
<path fill="#000000" opacity="1.000000" stroke="none" 
	d="
M904.012573,474.663330 
	C925.002319,474.363434 945.496704,474.174927 965.983826,473.685699 
	C970.716248,473.572723 972.603760,474.990753 972.363281,479.876556 
	C971.692871,493.499481 973.926697,507.281586 971.214966,520.759583 
	C966.828796,542.559631 942.225342,552.058716 925.563538,538.813293 
	C922.364685,536.270386 920.449402,532.743103 917.547546,528.949768 
	C909.433533,534.688110 901.399536,540.369873 892.189819,546.883179 
	C891.447388,539.254150 891.543457,533.052551 891.960632,526.857422 
	C892.069519,525.240234 893.718445,524.511230 894.918762,523.649292 
	C898.166870,521.316956 901.208313,518.512390 904.775879,516.846008 
	C913.158875,512.930542 914.799438,506.327087 913.745544,498.013611 
	C913.395447,495.251556 912.451599,494.170807 909.755920,494.231384 
	C905.424561,494.328766 901.073059,494.045013 896.761292,494.355469 
	C892.271851,494.678680 890.683655,492.667664 891.001587,488.510651 
	C891.026917,488.179749 890.990967,487.844421 890.989075,487.511108 
	C890.900635,471.880707 889.663635,475.094238 904.012573,474.663330 
M935.901184,522.799622 
	C946.989685,527.474182 955.314941,522.795898 956.461548,510.979584 
	C956.892578,506.536987 956.579224,502.018646 956.542053,497.535370 
	C956.518982,494.748199 955.257751,493.195892 952.238953,493.392578 
	C948.927429,493.608429 945.605713,493.664673 942.291992,493.852417 
	C929.068542,494.601685 929.006409,494.612427 929.387878,508.227051 
	C929.539429,513.636414 930.508057,518.839905 935.901184,522.799622 
z"/>
<path fill="#000000" opacity="1.000000" stroke="none" 
	d="
M70.394081,457.751984 
	C66.235146,456.872406 62.493076,456.059723 58.725849,455.388184 
	C56.156319,454.930176 55.455074,453.424347 55.924530,451.076447 
	C55.957150,450.913361 56.010654,450.754089 56.038116,450.590332 
	C58.550167,435.606873 58.544930,435.632263 73.590591,438.663452 
	C80.044762,439.963715 86.427605,441.728149 93.161995,442.192047 
	C93.202026,439.660065 91.588013,438.269226 90.488495,436.700104 
	C83.221237,426.328705 75.964935,415.946960 68.498657,405.719299 
	C66.462204,402.929688 65.653297,400.383026 66.633675,396.972778 
	C68.044685,392.064423 68.217316,386.831024 70.228569,381.923218 
	C72.858727,382.845520 73.751984,385.159973 75.070114,386.969116 
	C82.134911,396.665710 89.227409,406.346802 96.039864,416.219910 
	C98.379242,419.610291 100.351402,419.632233 103.805977,417.795593 
	C117.632698,410.444397 131.635727,403.424530 145.591888,396.318115 
	C146.439041,395.886749 147.445023,395.767273 149.149338,395.283447 
	C148.486237,402.818207 147.185867,409.711761 144.835114,416.362183 
	C144.435394,417.493011 142.570099,418.206177 141.269333,418.901825 
	C132.748047,423.458740 124.188667,427.944397 115.659729,432.487122 
	C113.933327,433.406647 111.991570,434.066315 110.847183,435.731323 
	C114.094650,444.185699 119.790237,448.618896 128.908035,449.808014 
	C139.421570,451.179077 138.782181,450.370392 136.531311,461.381653 
	C134.271698,472.435699 135.479660,470.712891 125.111855,468.766754 
	C106.966103,465.360626 88.899811,461.531158 70.394081,457.751984 
z"/>
<path fill="#000000" opacity="1.000000" stroke="none" 
	d="
M759.447876,203.903381 
	C752.260315,217.025314 752.251709,217.038147 740.597656,209.226105 
	C728.290710,200.976349 716.067688,192.598602 703.664795,184.496140 
	C700.066895,182.145752 699.626648,180.212006 702.098022,176.579208 
	C715.113831,157.446320 727.956909,138.194641 740.695007,118.875465 
	C743.094360,115.236511 745.005493,114.340836 748.948120,117.075516 
	C762.762695,126.657463 776.836365,135.865616 790.785950,145.253830 
	C792.135376,146.162003 793.750488,146.837250 794.561218,148.673782 
	C793.079773,152.489700 790.299561,155.631058 788.022766,159.072617 
	C786.157654,161.892014 784.263855,160.042328 782.528198,158.890594 
	C773.790222,153.092239 765.091614,147.234619 756.367798,141.414825 
	C755.001160,140.503113 753.576111,139.678864 752.032410,138.724060 
	C748.291321,141.758041 746.392578,145.872559 744.008057,149.589951 
	C742.319885,152.221786 744.803772,153.057693 746.357422,154.117401 
	C754.059021,159.370438 761.716675,164.694824 769.555786,169.735962 
	C772.531067,171.649323 772.716919,173.255951 770.830627,176.124298 
	C764.860107,185.203201 764.943542,185.286652 755.745544,179.185684 
	C749.641357,175.136780 743.525879,171.100510 737.528076,166.897827 
	C734.951599,165.092468 733.171143,165.098450 731.455261,167.967224 
	C729.333923,171.513977 726.957947,174.908432 724.302795,178.962982 
	C731.623779,183.875473 738.706970,188.446579 745.585693,193.307220 
	C750.287842,196.629868 755.746582,198.951706 759.447876,203.903381 
z"/>
<path fill="#000000" opacity="1.000000" stroke="none" 
	d="
M260.685608,186.204895 
	C260.580444,188.939453 267.404968,199.586395 269.274109,200.013504 
	C271.172058,200.447189 272.345520,198.971771 273.637665,198.016891 
	C282.478302,191.483612 291.367828,185.010956 300.052094,178.274460 
	C303.330566,175.731323 305.240173,175.982132 307.614594,179.466293 
	C313.653351,188.327362 313.747833,188.168091 305.053162,194.570465 
	C292.316071,203.949478 279.579773,213.333221 267.014679,222.939346 
	C264.116974,225.154663 262.620880,224.723373 260.622925,222.007507 
	C246.510132,202.823502 232.342972,183.678864 218.064499,164.618011 
	C215.812256,161.611389 215.646408,159.853928 218.998871,157.434143 
	C232.771942,147.492798 246.419922,137.371628 259.917999,127.060173 
	C263.508698,124.317177 265.354889,124.891083 267.852203,128.384506 
	C275.296173,138.797516 274.445984,135.931931 265.613770,142.793823 
	C258.514862,148.309067 251.254791,153.619888 243.991425,158.918900 
	C241.332565,160.858704 240.716827,162.612228 242.969894,165.447159 
	C251.003738,175.555817 248.092377,175.804489 258.936127,167.952713 
	C264.735962,163.753143 270.527466,159.535522 276.181763,155.144516 
	C278.764252,153.139023 280.590454,153.380417 282.348206,156.037018 
	C289.208038,166.404648 290.791412,163.612732 280.505402,171.325638 
	C273.978821,176.219528 267.441132,181.098557 260.685608,186.204895 
z"/>
<path fill="#000000" opacity="1.000000" stroke="none" 
	d="
M829.273682,823.284790 
	C832.075134,820.407104 834.497498,817.630127 837.223450,815.192627 
	C839.911072,812.789307 839.423706,811.065369 837.086548,808.672241 
	C828.836914,800.225403 828.940491,800.177307 820.849609,808.715332 
	C815.921265,813.916138 810.769653,818.910400 805.959045,824.215698 
	C803.515259,826.910767 801.798584,826.578064 799.433655,824.191772 
	C790.627747,815.306152 790.929871,817.840088 799.051086,809.129639 
	C804.163696,803.645935 809.308167,798.187378 814.587891,792.865906 
	C816.730042,790.706787 816.561768,789.263489 814.506592,787.077454 
	C811.659973,784.049500 809.302612,780.561768 806.875854,777.450500 
	C801.026672,781.016785 798.198975,784.746887 794.997803,788.038696 
	C789.190796,794.010071 783.415894,800.016418 777.776306,806.145081 
	C775.632874,808.474487 774.095276,808.688354 771.623718,806.418762 
	C763.041626,798.538452 762.991699,798.658936 771.133484,790.133667 
	C781.834473,778.928955 792.554810,767.740662 803.092773,756.383850 
	C805.731628,753.539917 807.427307,753.383789 810.309326,756.169861 
	C827.558899,772.844788 844.965332,789.357971 862.386780,805.854065 
	C864.575684,807.926636 864.642822,809.567627 862.587219,811.699951 
	C850.098083,824.655151 837.643250,837.643555 825.225281,850.666992 
	C823.488708,852.488159 822.169128,852.513062 820.182739,850.871460 
	C810.605896,842.957153 810.571594,843.021240 819.101929,834.098389 
	C822.440735,830.605896 825.720764,827.057190 829.273682,823.284790 
z"/>
<path fill="#000000" opacity="1.000000" stroke="none" 
	d="
M967.317444,440.858093 
	C969.601624,452.661560 970.426086,450.086182 959.702820,452.869476 
	C955.275024,454.018768 953.458069,452.722473 952.646301,448.251831 
	C950.805237,438.112885 948.453308,428.067780 946.464844,417.953888 
	C945.774597,414.443481 944.694214,412.874420 940.516235,413.801117 
	C929.213501,416.308258 929.144775,416.089722 931.543884,427.473694 
	C932.982910,434.302277 934.437073,441.128754 935.997803,447.930206 
	C936.701294,450.995941 935.679443,452.499359 932.608887,453.316162 
	C921.668335,456.226501 921.656921,456.194641 919.630920,445.011993 
	C918.297363,437.651886 916.553284,430.366943 915.078247,423.031250 
	C914.516479,420.237579 913.425537,419.240845 910.268555,419.862030 
	C896.967285,422.479401 896.966003,422.354828 899.800903,435.461884 
	C901.593140,443.748169 903.237854,452.066925 905.088623,460.339783 
	C905.878479,463.870300 905.394958,465.797516 901.174072,466.482788 
	C889.269958,468.415436 890.856750,471.093231 887.997253,457.687103 
	C884.804565,442.718994 882.021118,427.663513 878.817261,412.697937 
	C877.958435,408.686249 878.541748,406.666260 882.991272,405.775757 
	C905.502258,401.270630 927.957336,396.487274 950.441956,391.849365 
	C956.955261,390.505829 957.031677,390.565765 958.349060,396.913727 
	C961.358337,411.414429 964.301392,425.928864 967.317444,440.858093 
z"/>
<path fill="#000000" opacity="1.000000" stroke="none" 
	d="
M630.704834,66.996658 
	C636.457092,67.408546 636.798828,70.238197 635.838684,74.880241 
	C633.682617,85.304100 634.386719,84.179146 624.788696,82.250221 
	C615.989624,80.481850 607.218201,78.575470 598.431274,76.746017 
	C596.672302,76.379807 594.922852,75.734901 592.663635,76.428391 
	C591.705139,81.120636 590.717285,85.956833 589.643311,91.214661 
	C599.329529,94.089333 608.992188,95.579514 618.539856,97.537086 
	C625.722534,99.009758 625.746094,98.914856 624.294434,106.210327 
	C624.099854,107.188217 623.663818,108.149818 623.643616,109.125259 
	C623.546143,113.832901 620.812378,113.929314 617.214111,113.117424 
	C609.111328,111.289146 600.976807,109.600777 592.847778,107.890808 
	C590.914917,107.484230 588.952942,107.216614 586.812805,106.852493 
	C584.596680,111.476685 584.234070,116.309792 583.438293,120.992531 
	C582.914185,124.076805 585.635071,124.238945 587.709106,124.682472 
	C598.598694,127.011200 609.468750,129.446991 620.405762,131.529465 
	C624.185120,132.249054 625.401855,133.533295 624.459534,137.492645 
	C621.611023,149.461075 624.091919,148.366486 611.647034,145.823792 
	C596.328247,142.693924 581.025574,139.478378 565.670044,136.539444 
	C561.583191,135.757233 560.635681,134.214920 561.521545,130.098816 
	C566.451172,107.194115 571.132019,84.235245 575.770447,61.269142 
	C576.514587,57.584858 577.892822,56.281395 581.876526,57.129734 
	C597.983459,60.559784 614.157104,63.677242 630.704834,66.996658 
z"/>
<path fill="#000000" opacity="1.000000" stroke="none" 
	d="
M930.153809,318.940491 
	C934.161621,329.891266 940.095886,339.704346 941.719910,351.155365 
	C943.385559,362.899994 937.859741,374.291687 927.206909,379.982544 
	C915.572937,386.197510 903.594116,384.818634 894.350403,376.388062 
	C887.043579,369.724030 883.821472,360.730591 880.095459,352.015656 
	C877.473999,345.884186 877.533386,345.858459 871.223328,348.526093 
	C867.695618,350.017426 864.141907,351.450867 860.649902,353.021759 
	C858.167786,354.138336 856.849731,353.578217 855.690735,350.963104 
	C849.327637,336.606079 849.252319,336.612701 863.889587,330.472351 
	C882.317932,322.741638 900.807190,315.153870 919.167358,307.265228 
	C923.142029,305.557465 925.322876,305.987213 926.653076,310.245850 
	C927.543640,313.097076 928.872742,315.811340 930.153809,318.940491 
M897.548340,351.947479 
	C898.968994,354.958557 900.326355,358.013092 902.667114,360.465179 
	C906.626526,364.612854 911.667542,365.413788 917.216858,362.809784 
	C922.674622,360.248779 925.485352,355.563232 924.531189,349.958588 
	C923.321838,342.855316 920.184753,336.445190 916.973145,329.469177 
	C908.738037,332.952393 900.856384,336.286072 892.486267,339.826385 
	C894.218994,343.959747 895.747314,347.605347 897.548340,351.947479 
z"/>
<path fill="#000000" opacity="1.000000" stroke="none" 
	d="
M384.786316,935.597168 
	C383.538055,940.332825 382.301544,944.656494 381.369690,949.044922 
	C380.734711,952.035156 379.200165,952.922485 376.377716,952.096008 
	C373.345093,951.208008 370.340118,950.060486 367.238403,949.612549 
	C362.615875,948.945068 361.599426,946.904968 362.847443,942.464661 
	C366.673798,928.850891 369.892822,915.063965 373.836884,901.486389 
	C377.949005,887.330261 386.934021,878.270996 402.114563,876.088501 
	C419.643250,873.568420 440.051605,885.388367 444.524872,900.887451 
	C446.324036,907.121277 446.306549,913.412109 444.755920,919.629639 
	C441.213776,933.832642 437.418365,947.972473 433.872742,962.174622 
	C433.053223,965.457214 431.678314,966.657715 428.268524,965.504700 
	C425.123779,964.441223 421.852112,963.664185 418.578339,963.094055 
	C414.682617,962.415710 413.791412,960.546448 414.827484,956.796204 
	C418.282043,944.291748 421.524994,931.728210 424.772583,919.167480 
	C425.853943,914.985229 426.765869,910.786255 425.867126,906.373535 
	C424.432312,899.328979 419.096893,894.505066 411.239166,893.430237 
	C403.545715,892.377930 397.864746,894.977295 394.742676,901.742493 
	C389.830200,912.387268 388.202148,924.053467 384.786316,935.597168 
z"/>
<path fill="#000000" opacity="1.000000" stroke="none" 
	d="
M120.417603,554.380981 
	C124.479118,551.904419 127.568886,548.515625 132.227921,546.927246 
	C134.347763,552.659546 135.197174,558.363159 136.171722,564.026428 
	C136.465500,565.733704 135.204849,566.763367 133.999405,567.693115 
	C133.077713,568.404053 132.122528,569.072571 131.168777,569.740723 
	C121.219231,576.710999 121.233505,576.706665 123.883652,588.721313 
	C125.315308,595.211853 126.830910,601.689514 128.014481,608.226318 
	C128.515472,610.993286 129.815613,612.357056 132.476578,612.656921 
	C132.972641,612.712769 133.485031,612.725403 133.958435,612.864746 
	C138.204010,614.115112 144.210449,612.746643 146.489624,616.393494 
	C149.631439,621.420715 149.914627,627.941284 150.784607,634.586792 
	C143.531708,634.152100 137.191803,632.161438 130.777954,630.805725 
	C110.134499,626.442444 89.553314,621.785034 68.916801,617.388000 
	C65.675545,616.697388 64.216980,615.182739 63.514484,611.927795 
	C60.522915,598.066528 60.423790,598.090210 71.704918,589.872375 
	C87.846466,578.114014 103.985641,566.352295 120.417603,554.380981 
M111.533012,608.296265 
	C112.547356,600.713806 109.082657,594.009521 107.755508,585.818054 
	C99.259598,591.790771 91.133118,596.565979 82.847038,603.359924 
	C93.040794,605.230774 101.951736,606.866211 111.533012,608.296265 
z"/>
<path fill="#000000" opacity="1.000000" stroke="none" 
	d="
M145.245544,715.493774 
	C147.749176,699.580994 164.284851,692.007141 178.757660,700.021667 
	C191.550522,707.106018 197.726181,719.187805 202.209106,732.394409 
	C202.582901,733.495605 202.902008,734.621094 203.159729,735.755005 
	C206.026703,748.369873 205.489014,748.907227 192.831711,750.592712 
	C189.064224,751.094482 188.049011,750.007324 188.029434,746.580994 
	C187.978226,737.619263 184.905533,729.641968 179.782440,722.387817 
	C179.206467,721.572266 178.619949,720.758179 177.970673,720.001404 
	C174.184128,715.588013 169.947601,713.981934 166.718292,716.029846 
	C162.452591,718.735046 163.268219,722.757935 164.375198,726.745728 
	C166.598511,734.754883 169.938599,742.414612 171.609131,750.607117 
	C173.275421,758.778870 171.633224,765.895142 165.254303,771.435181 
	C158.427109,777.364502 150.543777,779.018127 141.956802,775.887817 
	C134.468796,773.158081 129.095062,767.696716 124.504898,761.434814 
	C118.998970,753.923584 115.613823,745.486694 113.933693,736.331543 
	C113.222427,732.455872 113.868584,730.197998 118.537376,729.495483 
	C128.432816,728.006470 128.393311,727.739380 130.744583,737.336731 
	C132.190994,743.240601 134.724670,748.621033 138.473312,753.418518 
	C140.035995,755.418396 141.863800,757.083313 144.263077,758.031860 
	C149.720749,760.189514 154.190857,756.985107 153.587967,751.131165 
	C152.985870,745.284973 150.443466,739.938110 148.810699,734.354797 
	C147.045822,728.319641 144.608749,722.400757 145.245544,715.493774 
z"/>
<path fill="#000000" opacity="1.000000" stroke="none" 
	d="
M54.272903,490.525696 
	C56.431309,485.153442 59.318130,480.736298 63.097321,476.859985 
	C65.002823,474.905548 66.638939,474.600769 68.435249,476.888702 
	C69.049255,477.670776 69.812889,478.335236 70.506897,479.054657 
	C76.923630,485.706421 76.923515,485.706482 72.010048,493.172638 
	C66.508698,501.532043 66.990593,514.517334 73.093437,522.364746 
	C79.553047,530.670898 91.131264,534.004944 101.497513,530.543945 
	C111.895622,527.072327 117.709145,518.746521 117.966103,507.452362 
	C118.121994,500.600830 116.248795,494.565033 111.460297,489.672729 
	C109.022324,487.181915 109.014969,485.271515 111.626503,483.064819 
	C112.890167,481.997009 113.921165,480.654816 115.064354,479.443329 
	C120.592842,473.584503 121.039856,473.628021 126.126610,480.252472 
	C144.340652,503.972565 134.566162,544.200073 101.573273,550.895874 
	C77.225960,555.837097 53.602497,538.311584 51.631512,513.500549 
	C51.017563,505.772125 51.491539,498.225159 54.272903,490.525696 
z"/>
<path fill="#000000" opacity="1.000000" stroke="none" 
	d="
M669.134766,96.004509 
	C669.199890,110.157860 669.261719,123.812439 669.340393,137.466919 
	C669.342163,137.775879 669.535034,138.083755 669.666443,138.474335 
	C671.505920,138.858139 672.240540,137.233017 673.221313,136.304214 
	C685.311279,124.855316 697.455505,113.459274 709.317383,101.777092 
	C712.313538,98.826286 714.871948,98.246368 718.515869,100.083412 
	C722.200928,101.941231 726.084656,103.405037 729.613464,104.925980 
	C730.032654,107.529922 728.391357,108.439270 727.259216,109.531181 
	C708.443359,127.678406 689.571899,145.768066 670.783813,163.943924 
	C668.696899,165.962860 666.830566,166.304291 664.108459,165.240082 
	C649.966614,159.711319 650.040710,159.774689 649.832458,144.402496 
	C649.525696,121.760887 650.234131,99.108925 649.132568,76.475815 
	C649.067688,75.143600 649.077881,73.806709 650.357605,72.001686 
	C656.092407,73.776085 661.759583,76.349236 667.340820,79.092926 
	C669.032288,79.924438 669.049744,81.828125 669.066040,83.515793 
	C669.104614,87.512283 669.112854,91.509064 669.134766,96.004509 
z"/>
<path fill="#000000" opacity="1.000000" stroke="none" 
	d="
M458.804565,927.103455 
	C458.873322,925.982239 458.889435,925.313354 458.977448,924.654114 
	C459.864777,918.008362 459.860565,918.133057 466.536713,918.538757 
	C475.009216,919.053589 483.501282,919.247986 491.973022,919.772705 
	C495.416565,919.985901 496.702545,918.798584 496.759705,915.287476 
	C496.862488,908.971558 497.565765,902.666687 497.719513,896.349976 
	C497.827484,891.912903 499.723236,890.307190 504.009674,891.239075 
	C505.301483,891.519958 506.649963,891.596252 507.977142,891.649475 
	C517.634888,892.036499 517.746826,892.033508 517.179260,901.881165 
	C515.916199,923.797424 514.473816,945.703369 513.244751,967.621460 
	C513.017822,971.668213 511.673157,972.968445 507.392517,972.636414 
	C490.470032,971.323669 473.520538,970.310730 456.566437,969.487793 
	C452.445892,969.287781 451.623657,967.542297 451.654541,963.918762 
	C451.745026,953.314697 452.112152,953.034729 462.631744,953.992126 
	C471.409119,954.791016 480.238861,955.005554 489.021759,955.755920 
	C493.537292,956.141663 495.022003,954.309143 494.727264,950.040100 
	C494.544830,947.397644 494.370819,944.573792 495.085083,942.087646 
	C496.602448,936.806152 493.917633,935.625183 489.593109,935.427673 
	C481.444458,935.055542 473.301697,934.454651 465.149689,934.295471 
	C460.415283,934.203064 457.769043,932.778931 458.804565,927.103455 
z"/>
<path fill="#000000" opacity="1.000000" stroke="none" 
	d="
M158.671371,650.402405 
	C162.256073,654.873108 163.468842,660.149841 165.685593,664.958862 
	C167.123871,668.079163 164.368057,668.563843 162.472244,669.359436 
	C147.436249,675.669922 132.406113,681.995422 117.325134,688.197144 
	C107.036995,692.427979 106.993195,692.345886 111.140175,702.429199 
	C112.468849,705.659851 113.746178,708.918884 115.248329,712.068970 
	C116.656273,715.021545 115.684906,716.513123 112.868950,717.862488 
	C102.230576,722.960022 102.267540,723.038757 97.860931,712.477112 
	C90.812973,695.584778 83.832390,678.663818 76.664009,661.822693 
	C75.180786,658.338074 75.591080,656.557678 79.348854,655.022888 
	C89.277306,650.968018 89.216751,650.794312 93.586121,660.663391 
	C94.999962,663.856812 96.476501,667.030823 97.701912,670.297119 
	C98.935890,673.586304 100.749260,673.932068 103.871239,672.597656 
	C119.784637,665.796448 135.772263,659.168396 151.753052,652.525879 
	C153.888214,651.638428 156.132141,651.012695 158.671371,650.402405 
z"/>
<path fill="#000000" opacity="1.000000" stroke="none" 
	d="
M321.529449,928.273926 
	C329.774841,910.799561 337.810516,893.613708 346.172638,876.588257 
	C348.044464,872.777100 347.341064,871.061523 343.661743,869.372925 
	C334.437439,865.139587 325.380463,860.543030 316.190674,856.232178 
	C313.383759,854.915466 312.479736,853.503601 314.047272,850.484741 
	C320.601654,837.861877 317.698730,839.377197 329.606537,844.783569 
	C342.787415,850.768066 355.732300,857.270325 368.852142,863.392395 
	C371.931061,864.829102 372.709991,866.461548 371.215698,869.585083 
	C360.731171,891.501160 350.342499,913.463013 339.906677,935.402405 
	C339.189026,936.911194 338.436127,938.690857 336.233032,937.614746 
	C331.458069,935.282471 326.719940,932.872437 322.019196,930.394714 
	C321.623474,930.186157 321.622162,929.229431 321.529449,928.273926 
z"/>
<path fill="#000000" opacity="1.000000" stroke="none" 
	d="
M800.622986,241.363754 
	C801.254822,241.935181 801.630920,242.263962 801.991699,242.608856 
	C811.147278,251.361099 811.098694,251.760727 801.416443,260.142487 
	C799.668640,261.655518 798.382263,261.751862 796.729431,260.157837 
	C784.033752,247.913956 771.320496,235.688126 758.570190,223.501068 
	C756.627197,221.643875 757.070129,220.221680 758.738159,218.480301 
	C775.656128,200.817459 792.542786,183.124588 809.396912,165.400787 
	C811.261536,163.439972 812.894531,163.113007 814.826111,165.213501 
	C816.063110,166.558685 817.445984,167.769012 818.750793,169.052750 
	C827.223511,177.388962 827.337769,175.084595 818.784119,184.024521 
	C807.626404,195.686264 796.505798,207.385361 785.204163,218.906464 
	C782.131592,222.038788 782.298218,224.171021 785.541138,227.017609 
	C790.662964,231.513687 795.438171,236.404724 800.622986,241.363754 
z"/>
<path fill="#000000" opacity="1.000000" stroke="none" 
	d="
M305.104279,855.054932 
	C294.530151,870.254211 284.043640,885.080139 273.857941,900.109924 
	C271.466492,903.638733 269.479614,904.225891 266.417084,901.350891 
	C263.066254,898.205200 256.715424,897.140442 256.169861,892.619751 
	C255.680023,888.560791 260.454529,885.073120 262.964539,881.390442 
	C271.313538,869.140869 279.861328,857.026794 288.321747,844.853088 
	C289.351379,843.371521 290.313141,841.842834 291.578949,839.922485 
	C282.648590,833.656433 273.983734,827.530701 265.268738,821.477112 
	C258.935852,817.078247 258.904907,817.119751 263.189240,810.894165 
	C263.850372,809.933533 264.663452,809.052612 265.179443,808.021301 
	C267.013062,804.356750 269.202972,804.501709 272.327515,806.703186 
	C285.945984,816.298218 299.652100,825.770569 313.411194,835.163147 
	C316.305847,837.139099 316.533234,838.926636 314.479004,841.661987 
	C311.280090,845.921631 308.347260,850.381165 305.104279,855.054932 
z"/>
<path fill="#000000" opacity="1.000000" stroke="none" 
	d="
M610.216675,938.687500 
	C599.074097,915.242126 593.613953,891.375122 599.215149,865.710815 
	C600.544556,859.619690 603.335022,856.282959 609.505981,855.661804 
	C612.273315,855.383240 614.857910,853.880310 618.592041,854.289185 
	C609.941223,892.819397 618.268860,927.186157 644.320190,956.884277 
	C636.698547,963.284119 627.508362,962.663208 621.480225,955.593323 
	C617.133972,950.496033 613.440857,944.974854 610.216675,938.687500 
z"/>
<path fill="#000000" opacity="1.000000" stroke="none" 
	d="
M944.246582,684.231079 
	C942.876831,687.804077 941.627563,691.014404 939.966187,695.283813 
	C912.728333,665.673462 879.675110,652.814697 839.716614,657.035156 
	C840.857605,651.105103 843.005981,646.290955 845.403687,641.631836 
	C846.259399,639.968994 848.472717,639.919617 850.315796,639.651306 
	C874.056458,636.195374 895.825256,642.430664 916.548157,653.348328 
	C926.488159,658.585083 935.151306,665.580139 942.637939,674.017212 
	C945.310181,677.028809 946.701904,680.071106 944.246582,684.231079 
z"/>
<path fill="#000000" opacity="1.000000" stroke="none" 
	d="
M166.212250,360.795258 
	C162.695801,366.821167 158.096695,369.184326 153.048889,367.862640 
	C146.614410,366.177887 142.635864,360.191162 144.113968,354.417816 
	C145.869827,347.559570 151.743454,343.608093 157.783661,345.221588 
	C165.124191,347.182465 168.442184,353.072357 166.212250,360.795258 
z"/>
<path fill="#000000" opacity="1.000000" stroke="none" 
	d="
M417.866516,123.759155 
	C422.882660,120.456886 427.725464,119.648827 432.477081,123.246567 
	C436.242065,126.097237 437.536469,130.183502 436.740875,134.714813 
	C435.847046,139.805389 432.613251,142.932556 427.518311,143.885315 
	C422.837494,144.760605 418.942627,143.124405 416.225769,139.306534 
	C413.296265,135.189819 412.807190,130.752167 415.695953,126.308182 
	C416.232300,125.483063 416.938629,124.768448 417.866516,123.759155 
z"/>
<path fill="#000000" opacity="1.000000" stroke="none" 
	d="
M242.827393,787.486328 
	C238.597336,793.623108 234.519867,795.595520 229.406418,794.235718 
	C224.643005,792.969055 220.906876,788.303406 220.683975,783.343079 
	C220.367462,776.299438 225.687302,771.131165 232.883194,771.491455 
	C239.527771,771.824097 244.585434,777.736877 243.760727,784.267090 
	C243.637543,785.242493 243.261902,786.185913 242.827393,787.486328 
z"/>
<path fill="#000000" opacity="1.000000" stroke="none" 
	d="
M905.887268,591.570129 
	C904.367371,597.203857 901.601135,600.981079 895.644470,601.377869 
	C890.512695,601.719604 886.471924,599.962158 883.992432,595.325500 
	C881.774536,591.178040 882.468872,585.714783 885.711670,582.264893 
	C889.299866,578.447693 893.806274,577.680542 898.557190,579.406982 
	C903.924561,581.357361 906.059387,585.642456 905.887268,591.570129 
z"/>
<path fill="#000000" opacity="1.000000" stroke="none" 
	d="
M552.603210,909.799561 
	C543.639648,913.749878 536.065857,910.580261 534.783813,902.690613 
	C533.784912,896.543274 536.555908,891.469360 541.989197,889.497131 
	C547.157104,887.621216 552.508728,889.406799 555.497375,894.004150 
	C558.807312,899.095703 557.849792,904.895691 552.603210,909.799561 
z"/>
</svg>